<svg width="177" height="32" viewBox="0 0 177 32" fill="none" xmlns="http://www.w3.org/2000/svg">
<path d="M8.01379 0C3.55232 0 0 4.23696 0 15.9951C0 26.1088 1.99281 31.9886 8.01379 31.9886C14.5984 31.9886 15.3777 25.5044 15.3777 20.1452L10.6129 19.928C10.5247 24.381 10.0929 27.2322 8.2299 27.2322C6.49746 27.2322 5.89201 26.1094 5.89201 15.9957C5.89201 5.53388 7.05907 4.75484 8.2299 4.75484C9.61553 4.75484 10.2648 6.65737 10.2648 11.7595L15.2892 11.5861C15.2892 5.96672 14.5098 0 8.01379 0ZM24.0272 0.000596793C19.0477 0.000596793 15.7983 3.84839 15.7983 15.9957C15.7983 28.1413 19.0477 31.9891 24.0272 31.9891C29.0074 31.9891 32.2565 28.141 32.2565 15.9957C32.2565 14.3152 32.1921 12.7992 32.0717 11.4247C34.0104 17.8798 41.8637 19.4382 41.8637 24.2508C41.8637 25.5044 41.2143 27.2321 39.351 27.2321C36.9252 27.2321 36.9251 24.2079 36.9251 22.4784V22.4778H31.9008C31.9008 26.7157 33.115 31.9885 39.1355 31.9885C42.4451 31.9885 44.7377 30.383 45.9302 27.9564V31.3838H50.0892V8.81927H50.175L53.9436 31.3838H57.0616L60.8742 8.81927H60.9611V31.3838H65.9849V16.5855C66.0902 28.2615 69.3116 31.9891 74.2098 31.9891C78.697 31.9891 81.7776 28.8623 82.344 19.3616V31.3838H87.9744V19.0642H90.2275C94.3469 19.0642 96.5707 16.8049 97.3512 13.1872C97.3065 14.1227 97.2843 15.0591 97.2847 15.9957C97.2847 28.1412 100.533 31.9891 105.513 31.9891C110.495 31.9891 113.744 28.141 113.744 15.9957C113.744 3.84839 110.495 0.000537148 105.513 0.000537148C101.542 0.000537148 98.6739 2.45282 97.674 9.60391C97.6035 3.10528 94.2748 0.606865 87.9744 0.606865H82.344V12.6292C81.7776 3.127 78.697 0.000537148 74.2098 0.000537148C69.3116 0.000537148 66.0902 3.7282 65.9849 15.4058V0.606805H58.6644L56.0225 16.3835H55.9367L53.4234 0.606925H45.9302V7.41892C45.4066 2.95967 43.3624 0.000537148 38.9194 0.000537148C34.2053 0.000537148 31.697 3.68237 31.644 8.23872C30.4818 2.13617 27.7352 0.000596793 24.0272 0.000596793ZM113.864 0.606925V31.3839H126.686V26.6285H119.496V0.606925H113.864ZM127.588 0.606925V31.3839H133.218V0.606925H127.588ZM134.165 0.606925V5.36171H139.017V31.3839H144.648V5.36171H149.436L145.774 31.3839H150.495L151.274 24.5537H155.825L156.645 31.3839H166.518V12.7521H166.605L172.626 31.3839H177V0.606925H172.496V16.8588H172.41L167.256 0.606925H161.754V28.9118L158.247 0.606925H150.105L149.498 4.92104V0.606925H134.165ZM24.0272 4.75478C25.3274 4.75478 26.1061 6.09515 26.1061 12.752V19.237C26.1061 25.8936 25.3275 27.2321 24.0272 27.2321C22.7269 27.2321 21.9477 25.8936 21.9477 19.237V12.752C21.9477 6.09515 22.7269 4.75478 24.0272 4.75478ZM38.7874 4.75478C41.0401 4.75478 41.0401 7.65161 41.0401 9.38119H45.9303V19.1443C43.3904 13.7773 36.6661 11.8085 36.6661 7.56543C36.6661 5.87941 37.446 4.75478 38.7874 4.75478ZM74.2098 4.75478C75.5082 4.75478 76.2882 6.09515 76.2882 12.752V19.237C76.2882 25.8936 75.5082 27.2321 74.2098 27.2321C72.9104 27.2321 72.1304 25.8936 72.1304 19.237V12.752C72.1304 6.09515 72.9104 4.75478 74.2098 4.75478ZM105.513 4.75478C106.815 4.75478 107.593 6.09515 107.593 12.752V19.237C107.593 25.8936 106.815 27.2321 105.513 27.2321C104.215 27.2321 103.435 25.8936 103.435 19.237V12.752C103.435 6.09515 104.215 4.75478 105.513 4.75478ZM88.02 5.36171H88.4505C90.3133 5.36171 92.0464 5.49079 92.0464 9.94366C92.0464 13.6606 90.79 14.5695 88.4945 14.5695H88.02V5.36171ZM153.612 5.36171H153.7L155.345 20.059H151.84L153.612 5.36171Z" fill="#3C3017"/>
</svg>
