<svg width="121" height="32" viewBox="0 0 121 32" fill="none" xmlns="http://www.w3.org/2000/svg">
<path fill-rule="evenodd" clip-rule="evenodd" d="M48.2023 11.4472C48.3371 11.9602 49.862 18.2127 47.1927 23.9529C46.932 24.5126 43.9028 31.8495 35.6747 31.872C27.4466 31.8495 24.4174 24.5126 24.1567 23.9529C21.4869 18.2127 23.0123 11.9602 23.1471 11.4473C26.4247 0.0976641 35.6446 0.256 35.6446 0.256H35.7039C35.7039 0.256 44.9246 0.0976641 48.2022 11.447L48.2023 11.4472ZM41.3205 27.2733C41.5267 26.7625 43.2091 23.385 43.2124 16.0685C43.2153 8.75251 41.5207 5.37549 41.315 4.86413C39.7496 0.0956157 35.7485 0.46464 35.7485 0.46464H35.6009C35.6009 0.46464 31.5991 0.0956162 30.0344 4.864C29.8282 5.37536 28.1458 8.75238 28.1425 16.0684C28.1396 23.3848 29.8343 26.7624 30.0404 27.2732C31.6053 32.0412 35.6065 31.6728 35.6065 31.6728H35.754C35.754 31.6728 39.7558 32.0413 41.3205 27.2733ZM115.61 29.4292C120.83 26.2203 120.934 19.8828 120.934 19.8828H121V31.2174H99.1848V31.0004H101.523V0.8448H97.4564V22.8383C97.4564 32.3049 89.7658 31.9987 88.489 31.9987C78.4933 31.9987 78.0967 25.5875 78.0967 22.7931V0.863616H75.6888V0.646656H85.7894V0.866816H83.3821V25.0665C83.3821 26.9053 83.7865 27.7745 84.0222 28.3091C85.7728 31.886 89.0792 31.6355 89.4664 31.6355C95.6321 31.6355 97.2207 26.8806 97.2207 22.3643V0.865792H94.7967V0.64H120.082V10.4008H119.987C119.987 7.47597 117.939 4.82534 117.599 4.37376C115.338 0.964352 110.883 0.839936 110.883 0.839936H106.802V15.4056C110.492 15.4056 111.274 14.4357 111.58 14.2022C114.267 12.0127 113.757 9.08736 113.757 9.08736H113.961V22.0751H113.739C113.739 18.5313 111.495 17.0455 110.901 16.5587C109.54 15.4391 106.802 15.6397 106.802 15.6397V30.9944H110.169C113.501 30.8264 115.355 29.579 115.61 29.4292H115.61ZM14.5319 31.744L2.68115 0.856448H0V0.64H10.4819L10.4803 0.86144H7.94145L16.7853 23.2064L23.4072 0.86528H20.9632V0.641664H26.038V0.86528H23.6427L14.5319 31.744ZM68.0816 1.37818C71.0592 2.064 72.048 0 72.048 0V10.962C70.9452 6.00832 67.8686 2.78541 67.5983 2.46835C66.1634 0.850688 64.6952 0.333568 63.058 0.333568C59.4152 0.417024 58.2846 3.93613 58.0315 4.50317C56.5121 8.27226 56.4954 14.3603 56.4954 14.8933C56.3603 20.9312 57.4915 25.3015 57.6767 26.018C58.656 29.7871 60.3101 30.7378 60.5804 30.9377C62.8216 32.2885 65.3687 31.3592 65.674 31.2548C69.0671 29.8542 68.9825 25.9181 68.9825 25.9181V19.03H66.7041V18.7794H76.0717V19.013H74.0129V31.3048C72.3923 28.5194 69.1516 30.1377 68.5611 30.3877C65.3364 31.9219 64.2731 31.806 63.8677 31.839C59.7361 32.1884 56.8664 29.654 56.6307 29.4541C51.4652 25.1004 50.925 18.9798 50.8911 18.4799C50.2159 11.1247 53.4906 6.67098 53.6424 6.42099C57.9303 0.300544 61.9946 0.116992 62.7037 0.083584C64.6779 -0.083584 67.373 1.23853 68.0816 1.37818Z" fill="#3C3017"/>
</svg>
