<svg width="156" height="33" viewBox="0 0 156 33" fill="none" xmlns="http://www.w3.org/2000/svg">
<path d="M15.5899 31.5846L18.3956 3.74026C18.4999 2.28538 18.811 2.07776 19.3306 2.07776H19.6426V0.520928H15.0703V2.07776H15.3822C16.006 2.07776 16.3172 2.49301 16.2137 3.74026L14.5499 20.3638L12.6792 3.74026C12.4715 2.38957 12.7834 2.07776 13.5107 2.07776H13.6149V0.520928H7.27533V2.07776H7.58724C8.21108 2.07776 8.21108 2.28538 8.31455 3.74026L8.83565 7.99996L7.27533 21.5069L5.61227 3.74026C5.40457 2.28538 5.71649 2.07776 6.33958 2.07776H6.4438V0.520928H0V2.07776H0.311917C1.03923 2.07776 1.03923 2.28538 1.14345 3.74026L4.05343 31.5846H8.21033L9.87339 17.2472L11.4322 31.5846H15.5899ZM42.4035 13.2985C42.4035 11.3242 42.4035 10.7013 43.6505 10.7013C44.482 10.7013 44.482 11.0132 44.482 12.6757V29.2985C44.482 29.9221 44.2743 30.0255 43.9609 30.0255H43.7532V31.5839H50.0928V30.0255H49.7809C49.3655 30.0255 49.2598 29.8179 49.2598 29.1943V11.7402C49.2598 8.83122 48.6359 7.79234 45.8302 7.79234C45.0682 7.70954 44.3009 7.89155 43.6573 8.30775C43.0137 8.72395 42.5332 9.34897 42.2963 10.0777C41.9844 8.5194 41.1529 7.79234 38.9702 7.79234C37.2037 7.79234 36.2679 8.31326 35.5406 10.0777V7.79234L30.0318 8.20759V9.76591H30.2395C30.5515 9.76591 30.8634 10.0777 30.8634 10.909V29.0908C30.8634 29.8179 30.6557 30.0255 30.2395 30.0255H30.0318V31.5839H36.1637V30.0255H35.956C35.6441 30.0255 35.5406 29.9213 35.5406 29.4019V13.2985C35.5406 11.3242 35.5406 10.7013 36.6841 10.7013C37.5156 10.7013 37.5156 11.0132 37.5156 12.6757V29.2985C37.5156 29.9221 37.3079 30.0255 36.9945 30.0255H36.6826V31.5839H42.9187V30.0255H42.8145C42.3991 30.0255 42.1906 29.8179 42.1906 29.1943V13.2985H42.4035ZM86.2625 31.5839H93.9532V30.0255H93.4321C92.8082 30.0255 92.6005 29.7137 92.6005 28.363V16.3117H96.654V28.2596C96.654 29.6103 96.4463 29.9221 95.8224 29.9221H95.1986V31.4789H102.786V29.9221H102.162C101.538 29.9221 101.33 29.6103 101.33 28.2596V3.74026C101.33 2.28538 101.435 2.07776 102.162 2.07776H102.786V0.520928H95.2001V2.07776H95.8239C96.4478 2.07776 96.6555 2.28538 96.6555 3.74026V14.545H92.4986V3.74026C92.4986 2.28538 92.7062 2.07776 93.4336 2.07776H93.9547V0.520928H86.2625V2.07776H86.8863C87.5101 2.07776 87.7178 2.28538 87.7178 3.74026V29.0908C87.7178 29.7145 87.5101 29.9221 86.8863 29.9221H86.2625V31.5839ZM142.696 31.5839H148.726V30.0255H148.514C148.099 30.0255 148.099 29.9213 148.099 29.4019V13.2985C148.099 11.3242 148.099 10.7013 149.346 10.7013C150.281 10.7013 150.281 11.0132 150.281 12.6757V29.2985C150.281 29.9221 150.073 30.0255 149.865 30.0255H149.556V31.5839H156V30.0255H155.688C155.273 30.0255 155.167 29.8179 155.167 29.1943V11.7402C155.167 8.83122 154.44 7.79234 151.633 7.79234C149.762 7.79234 148.723 8.31326 147.996 10.0777V0L142.176 0.520928V2.07776H142.8C143.215 2.07776 143.424 2.28538 143.424 3.22082V29.0908C143.424 29.8179 143.319 30.0255 142.8 30.0255H142.592V31.5839H142.696ZM23.9037 31.8957C28.9963 31.8957 29.7236 27.636 29.7236 19.8436C29.7236 12.0513 28.9963 7.79159 23.9037 7.79159C18.811 7.79159 18.0837 11.9471 18.0837 19.8436C18.0837 27.636 18.811 31.8957 23.9037 31.8957ZM61.7342 31.5839H67.8661V30.0255H67.5541C67.2422 30.0255 67.2422 29.9213 67.2422 29.4019V13.2985C67.2422 11.3242 67.2422 10.7013 68.4892 10.7013C69.3207 10.7013 69.4249 11.0132 69.4249 12.6757V29.2985C69.4249 29.9221 69.2172 30.0255 68.9038 30.0255H68.5919V31.5839H75.0387V30.0255H74.831C74.4156 30.0255 74.3099 29.8179 74.3099 29.1943V11.7402C74.3099 8.83122 73.686 7.79234 70.776 7.79234C69.0095 7.79234 67.8661 8.31326 67.2422 10.0777V7.79234L61.3181 8.20759V9.76591H61.9419C62.2538 9.76591 62.5657 10.0777 62.5657 10.909V29.0908C62.5657 29.8179 62.358 30.0255 61.9419 30.0255H61.7342L61.7349 31.5846L61.7342 31.5839ZM117.234 31.9999C119.312 31.9999 120.144 30.958 120.56 29.7145C120.975 31.5846 121.391 31.9999 123.782 31.9999C126.588 31.9999 126.899 30.3373 126.899 27.1165H125.548C125.548 29.5061 125.548 29.7137 125.027 29.7137C124.612 29.7137 124.612 29.5061 124.612 28.1554V12.6764C124.612 9.55977 123.57 7.89727 119.935 7.89727C117.025 7.89727 114.219 8.72852 114.323 11.9493C114.427 13.4042 114.947 14.8584 116.506 14.7542C117.857 14.65 118.481 13.9229 118.481 12.7798C118.423 12.2315 118.256 11.7004 117.988 11.2184C117.72 10.7364 117.357 10.3135 116.922 9.97502C117.508 9.71284 118.153 9.60548 118.793 9.66321C119.835 9.66321 120.04 10.4945 120.04 11.9486V16.3125C114.739 18.0784 113.7 18.8062 113.7 25.4555C113.7 30.1305 114.947 32.0043 117.234 32.0043V31.9999ZM108.192 31.9999C112.141 31.9999 113.077 30.8568 112.868 24.3117H111.205C111.205 29.5068 110.998 29.8187 109.23 29.8187C107.048 29.8187 107.048 28.884 107.048 20.0527V19.3257H113.387C113.387 10.391 112.345 7.89727 108.19 7.89727C104.345 7.89727 102.37 10.2868 102.37 20.0527C102.371 29.4027 103.93 31.9999 108.191 31.9999H108.192ZM56.2269 31.8957C60.0726 31.8957 61.1118 30.7526 61.0076 24.2075H59.3446C59.3446 29.4027 59.1369 29.7145 57.2661 29.7145C54.8757 29.7145 55.0834 28.7798 55.0834 19.9486V19.2215H61.2153C61.2153 10.2868 60.3838 7.79308 56.2276 7.79308C52.3819 7.79308 50.4077 10.1827 50.4077 19.9486C50.4077 29.3997 51.9665 31.8964 56.2276 31.8964L56.2269 31.8957ZM127.211 31.5839H133.551V30.0255H133.03C132.614 30.0255 132.509 29.8179 132.509 29.1943V0L126.585 0.520928V2.07776H127.208C127.624 2.07776 127.73 2.28538 127.73 2.90901V29.2985C127.73 29.9221 127.729 30.0255 127.418 30.0255H127.106V31.5839H127.211ZM81.6902 31.8957C84.6001 31.8957 86.0555 30.0255 86.0555 27.1165C86.0555 20.3631 80.0256 16.5194 80.0256 11.7402C80.0256 10.2853 80.5467 9.87009 81.5844 9.87009C83.1433 9.87009 83.351 10.4937 83.5594 12.7791L83.7671 14.961H85.5351V7.99996H84.184C84.0798 8.83122 83.8721 9.14303 83.8721 9.04182C83.4593 8.61064 82.9567 8.27547 82.3999 8.06006C81.8431 7.84465 81.2458 7.75427 80.6502 7.79531C78.1556 7.79531 75.8694 8.93838 75.8694 12.6786C75.8694 18.6008 81.8993 23.0682 81.8993 27.5355C81.8993 29.5098 81.4839 29.8209 80.0286 29.8209C78.6774 29.8209 78.262 29.1973 78.0536 26.2883L77.9494 24.3139H76.0786V31.5868H77.6375C77.7417 30.7556 78.0529 30.2361 78.2613 30.545C78.7824 31.0659 79.404 31.8957 81.6902 31.8957ZM134.593 26.7013C134.593 30.4415 135.114 31.8964 138.854 31.8964C141.452 31.8964 142.076 30.8546 142.076 27.9485V23.9999H140.517V28.1554C140.517 29.5061 140.413 29.7137 139.894 29.7137C139.374 29.7137 139.27 29.5061 139.27 28.363V9.76591H142.18V7.99996H139.27V2.07776H137.607C136.463 7.37634 135.424 7.99996 133.865 7.99996H133.45V9.76591H134.492V26.7013H134.593ZM23.9037 29.8179C22.7602 29.8179 22.7602 29.1943 22.7602 19.8459C22.7602 10.3947 22.7602 9.76814 23.9037 9.76814C24.9459 9.76814 24.9459 10.3918 24.9459 19.7402C24.9459 29.1913 24.9459 29.8179 23.9037 29.8179ZM75.3491 9.03884C79.2983 6.12983 80.1298 3.8437 78.7787 1.87013C78.1556 0.727066 76.4925 0 75.3498 1.04186C73.8945 2.18492 74.3076 4.26268 76.9087 5.50695C76.3876 6.02788 75.3498 7.16946 74.4141 8.00071L75.3491 9.03884ZM119.208 28.9867C118.272 28.9867 118.272 27.9448 118.272 24.8311C118.272 19.1166 118.272 18.3895 120.143 17.3506V27.1165C120.143 28.6748 119.935 28.9867 119.208 28.9867ZM55.0827 17.4518C55.1869 10.0755 55.2904 9.65949 56.3296 9.65949C57.3688 9.65949 57.2646 10.0747 57.2646 17.4518H55.0827ZM107.048 17.4518C107.152 10.0755 107.255 9.65949 108.295 9.65949C109.334 9.65949 109.126 10.0747 109.126 17.4518H107.048Z" fill="#3C3017"/>
</svg>
