<svg width="105" height="32" viewBox="0 0 105 32" fill="none" xmlns="http://www.w3.org/2000/svg">
<path d="M101.827 25.6274C103.572 25.631 105.002 27.0668 105 28.8126C105.002 30.626 103.572 32.0618 101.827 31.9978C100.026 32.0618 98.5956 30.626 98.6538 28.8126C98.5956 27.0674 100.026 25.6316 101.827 25.6274V25.917C100.154 25.9145 98.9207 27.1868 98.9423 28.8126C98.9207 30.471 100.171 31.7782 101.827 31.7083C103.443 31.7782 104.676 30.4625 104.712 28.8126C104.676 27.1959 103.451 25.9145 101.827 25.917V25.6274ZM58.125 0.725358H65.1923L72.2596 16.3619V0.725358H78.1731V30.8402H71.6827L64.1827 13.4662V30.8402H58.125V0.725358ZM0 0.725358V30.8402H14.1346V25.4832H5.91346V17.5202H14.1346V12.308H5.91346V5.50319H14.1346V0.725358H0ZM45.4327 0.000840941C40.9074 -0.0522461 37.2831 2.40966 37.2115 6.95041V24.0348C37.2831 28.5785 40.9074 31.0404 45.4327 30.9843C49.8492 31.0404 53.4736 28.5785 53.5096 24.0348V6.95041C53.4736 2.41027 49.8492 -0.0516428 45.4327 0.000840941ZM47.5961 23.3115C47.5457 24.5687 46.5751 25.5429 45.4327 25.4832C44.1815 25.5429 43.2109 24.5687 43.2692 23.3115V7.67493C43.2109 6.42075 44.1815 5.44648 45.4327 5.50319C46.5751 5.44648 47.5457 6.42075 47.5961 7.67493V23.3115ZM28.8462 0.725358H18.1731V30.8402H27.8365C33.7494 30.7877 33.8395 26.3984 33.8942 24.6145V17.8097C33.8395 15.9016 32.7127 15.2229 32.3077 15.2036C31.9916 15.1324 31.8564 14.7252 32.3077 14.6245C33.7494 14.0013 33.8395 11.0152 33.8942 10.1362C33.8395 9.2054 33.8395 7.1694 33.8942 5.64797C33.8395 0.337461 30.6394 0.65357 28.8462 0.725358ZM24.2308 5.35841H26.1058C27.4393 5.31437 27.9351 6.08353 27.8365 7.0958V10.4258C27.89 12.1463 26.0421 12.2368 24.2308 12.308V5.35841ZM27.8365 20.271V23.601C27.89 25.3577 26.0421 25.4482 24.2308 25.4832V17.9545H25.3846C27.259 17.8924 27.9351 19.295 27.8365 20.271Z" fill="#3C3017"/>
</svg>
