<svg width="17" height="16" viewBox="0 0 17 16" fill="none" xmlns="http://www.w3.org/2000/svg">
<path d="M7.99217 0.247391C8.02893 0.173114 8.08573 0.110591 8.15614 0.0668773C8.22655 0.0231638 8.30778 0 8.39065 0C8.47353 0 8.55476 0.0231638 8.62517 0.0668773C8.69558 0.110591 8.75238 0.173114 8.78914 0.247391L10.727 4.17267C10.8547 4.43103 11.0431 4.65455 11.2762 4.82405C11.5093 4.99355 11.78 5.10396 12.0651 5.14581L16.3989 5.78003C16.4811 5.79193 16.5582 5.82657 16.6217 5.88003C16.6851 5.93349 16.7323 6.00364 16.758 6.08255C16.7837 6.16146 16.7867 6.24597 16.7669 6.32653C16.747 6.40709 16.705 6.48048 16.6456 6.53841L13.5114 9.59038C13.3047 9.79181 13.15 10.0404 13.0608 10.3149C12.9715 10.5893 12.9502 10.8814 12.9988 11.1659L13.7387 15.4779C13.7532 15.56 13.7444 15.6445 13.7131 15.7217C13.6819 15.799 13.6296 15.866 13.5622 15.915C13.4947 15.9639 13.4149 15.993 13.3317 15.9988C13.2486 16.0045 13.1655 15.9868 13.0919 15.9477L9.21782 13.9108C8.96256 13.7768 8.67855 13.7067 8.39024 13.7067C8.10192 13.7067 7.81791 13.7768 7.56265 13.9108L3.68938 15.9477C3.61583 15.9866 3.53283 16.0041 3.44983 15.9982C3.36682 15.9923 3.28713 15.9632 3.21983 15.9143C3.15253 15.8654 3.10032 15.7985 3.06913 15.7214C3.03794 15.6442 3.02903 15.5598 3.04341 15.4779L3.7825 11.1667C3.83132 10.8821 3.81017 10.5899 3.72087 10.3152C3.63157 10.0406 3.4768 9.79185 3.26992 9.59038L0.135736 6.53925C0.0758324 6.48139 0.0333828 6.40787 0.0132231 6.32707C-0.00693668 6.24626 -0.00399606 6.16142 0.0217098 6.0822C0.0474157 6.00298 0.0948533 5.93258 0.158619 5.87901C0.222385 5.82544 0.299915 5.79085 0.382377 5.77919L4.71537 5.14581C5.00082 5.10429 5.2719 4.99402 5.50528 4.8245C5.73866 4.65498 5.92735 4.43128 6.05512 4.17267L7.99217 0.247391Z" fill="#FDAC31"/>
</svg>
