<svg width="15" height="14" viewBox="0 0 15 14" fill="none" xmlns="http://www.w3.org/2000/svg">
<path d="M6.99365 0.711079C7.02347 0.650826 7.06954 0.600107 7.12666 0.564647C7.18378 0.529186 7.24967 0.510396 7.3169 0.510396C7.38413 0.510396 7.45002 0.529186 7.50714 0.564647C7.56426 0.600107 7.61033 0.650826 7.64015 0.711079L9.21217 3.89527C9.31573 4.10485 9.4686 4.28617 9.65766 4.42367C9.84672 4.56116 10.0663 4.65073 10.2976 4.68468L13.8132 5.19916C13.8798 5.20881 13.9424 5.23691 13.9939 5.28028C14.0454 5.32365 14.0837 5.38055 14.1045 5.44456C14.1253 5.50857 14.1278 5.57713 14.1117 5.64248C14.0956 5.70783 14.0615 5.76737 14.0133 5.81436L11.4708 8.29012C11.3032 8.45351 11.1777 8.65521 11.1053 8.87784C11.0329 9.10047 11.0156 9.33737 11.055 9.56815L11.6553 13.0661C11.667 13.1326 11.6598 13.2012 11.6345 13.2639C11.6092 13.3266 11.5667 13.3809 11.512 13.4206C11.4573 13.4603 11.3926 13.4839 11.3251 13.4886C11.2577 13.4933 11.1903 13.4789 11.1306 13.4472L7.9879 11.7948C7.78083 11.6861 7.55044 11.6293 7.31656 11.6293C7.08268 11.6293 6.85229 11.6861 6.64522 11.7948L3.50322 13.4472C3.44356 13.4787 3.37623 13.4929 3.3089 13.4882C3.24156 13.4834 3.17692 13.4598 3.12233 13.4201C3.06773 13.3804 3.02538 13.3262 3.00008 13.2636C2.97478 13.201 2.96755 13.1326 2.97921 13.0661L3.57876 9.56883C3.61836 9.33795 3.60121 9.1009 3.52877 8.87813C3.45633 8.65535 3.33078 8.45355 3.16296 8.29012L0.620505 5.81504C0.571911 5.7681 0.537476 5.70846 0.521122 5.64292C0.504769 5.57737 0.507154 5.50854 0.528007 5.44428C0.54886 5.38002 0.587341 5.32291 0.639068 5.27945C0.690794 5.23599 0.753687 5.20794 0.82058 5.19848L4.33551 4.68468C4.56706 4.65099 4.78696 4.56154 4.97628 4.42403C5.1656 4.28652 5.31867 4.10506 5.42231 3.89527L6.99365 0.711079Z" fill="#FDAC31" stroke="#FDAC31" stroke-linecap="round" stroke-linejoin="round"/>
</svg>
