<svg width="32" height="28" viewBox="0 0 32 28" fill="none" xmlns="http://www.w3.org/2000/svg">
<path fill-rule="evenodd" clip-rule="evenodd" d="M16 3.53433C12.4114 -0.0602729 8.58169 -0.701661 5.45938 0.662577C2.2133 2.08091 0.056507 5.55311 0.000141961 9.12843L0 9.14644C0 10.2232 0.141718 11.2735 0.397173 12.2905H6.14286L9.14286 8.29053C9.43147 7.90571 9.89438 7.69197 10.3745 7.72187C10.8546 7.75174 11.2874 8.02125 11.5261 8.4389L15.0188 14.5512L17.1429 11.7191C17.4127 11.3594 17.8361 11.1477 18.2857 11.1477H21.7143C22.5033 11.1477 23.1429 11.7873 23.1429 12.5762C23.1429 13.3652 22.5033 14.0048 21.7143 14.0048H19L16 18.0048C15.7114 18.3896 15.2485 18.6034 14.7684 18.5735C14.2883 18.5436 13.8555 18.2741 13.6168 17.8565L10.1241 11.7442L8 14.5762C7.73022 14.936 7.30679 15.1477 6.85714 15.1477H1.43512C2.71401 17.8381 4.69355 20.2049 6.72987 22.0898C8.4731 23.7036 10.3117 25.0156 11.9133 25.9305C12.7138 26.3879 13.4699 26.7543 14.1376 27.0098C14.7787 27.2551 15.4337 27.4359 16 27.4359C16.5662 27.4359 17.2213 27.2551 17.8623 27.0098C18.5301 26.7543 19.2861 26.3879 20.0867 25.9305C21.6883 25.0156 23.5269 23.7036 25.2702 22.0898C28.7163 18.8997 32 14.3295 32 9.14644L31.9998 9.12843C31.9435 5.55311 29.7867 2.08091 26.5406 0.662577C23.4183 -0.701658 19.5886 -0.0602751 16 3.53433Z" fill="#DFB356"/>
</svg>
