<svg width="32" height="32" viewBox="0 0 32 32" fill="none" xmlns="http://www.w3.org/2000/svg">
<path fill-rule="evenodd" clip-rule="evenodd" d="M17.7143 1.71427C17.7143 0.767505 16.9469 0 16.0001 0C15.0533 0 14.2858 0.767505 14.2858 1.71427V2.90473C14.2858 3.85152 15.0533 4.61901 16.0001 4.61901C16.9469 4.61901 17.7143 3.85152 17.7143 2.90473V1.71427ZM7.11076 4.68623C6.44128 4.01675 5.35587 4.01675 4.68641 4.68623C4.01693 5.35569 4.01693 6.4411 4.68641 7.11058L5.52819 7.95235C6.19767 8.62181 7.28308 8.62181 7.95254 7.95235C8.62202 7.2829 8.62202 6.19746 7.95254 5.52801L7.11076 4.68623ZM32 15.9999C32 16.9466 31.2325 17.7142 30.2857 17.7142H29.0951C28.1484 17.7142 27.3808 16.9466 27.3808 15.9999C27.3808 15.0531 28.1484 14.2856 29.0951 14.2856H30.2857C31.2325 14.2856 32 15.0531 32 15.9999ZM2.90473 17.7142C3.85152 17.7142 4.61901 16.9466 4.61901 15.9999C4.61901 15.0531 3.85152 14.2856 2.90473 14.2856H1.71427C0.767505 14.2856 0 15.0531 0 15.9999C0 16.9466 0.767505 17.7142 1.71427 17.7142H2.90473ZM27.3136 4.68623C27.9831 5.35569 27.9831 6.4411 27.3136 7.11058L26.472 7.95235C25.8026 8.62181 24.7171 8.62181 24.0476 7.95235C23.3781 7.2829 23.3781 6.19746 24.0476 5.52801L24.8894 4.68623C25.5589 4.01675 26.6444 4.01675 27.3136 4.68623ZM21.0886 27.9209C21.1127 27.9225 21.1368 27.9237 21.1607 27.9241C21.1388 28.3161 21.1074 28.6979 21.0741 29.0654L21.0735 29.0709C21.0105 29.7308 20.7586 30.3717 20.3279 30.8818C19.8947 31.395 19.2948 31.7552 18.6095 31.8487L18.6027 31.8496C17.9694 31.9321 16.7577 31.9998 16.1155 31.9998C15.4733 31.9998 14.2615 31.9321 13.6283 31.8496L13.6215 31.8487C12.9362 31.7552 12.3363 31.395 11.9031 30.8818C11.4724 30.3717 11.2204 29.7308 11.1574 29.0709L11.1569 29.0654C11.1236 28.6979 11.0922 28.3161 11.0702 27.9241C11.0938 27.9237 11.1175 27.9225 11.1413 27.9209C11.2545 27.9132 11.3637 27.8926 11.4676 27.8604C14.4656 27.2526 17.7631 27.2823 20.7932 27.8693C20.8877 27.8963 20.9865 27.9139 21.0886 27.9209ZM17.5435 24.5998C18.8585 24.6702 20.1607 24.8325 21.4192 25.0803C21.7187 24.2218 22.2923 23.406 23.0241 22.3977L23.0312 22.3878C23.3354 21.9684 23.6638 21.5156 23.9765 21.0361C24.8421 19.7091 25.3509 17.8776 25.4202 16.3588C25.4208 16.3415 25.4213 16.3242 25.4213 16.3068C25.4213 13.6662 24.6741 11.4275 23.0193 9.85954C21.3745 8.30111 19.0088 7.57249 16.1154 7.57249C13.2221 7.57249 10.8563 8.30111 9.21166 9.85954C7.55691 11.4275 6.80967 13.6662 6.80967 16.3068C6.80967 16.3242 6.81005 16.3415 6.81085 16.3588C6.88007 17.8776 7.38895 19.7091 8.25432 21.0361C8.56705 21.5156 8.8955 21.9683 9.19975 22.3877L9.207 22.3977C9.93806 23.4053 10.5114 24.2204 10.8111 25.0784C12.073 24.8174 13.3749 24.6577 14.6864 24.5927V22.5227C14.4841 22.3857 14.2962 22.2168 14.1294 22.0158C13.5043 21.2622 12.7955 20.2157 12.2933 19.0277C11.9861 18.301 12.3262 17.4629 13.0529 17.1557C13.7796 16.8485 14.6177 17.1886 14.9249 17.9153C15.2421 18.6656 15.6866 19.3679 16.1155 19.925C16.5444 19.3679 16.9889 18.6656 17.3061 17.9153C17.6133 17.1886 18.4514 16.8485 19.1781 17.1557C19.9048 17.4629 20.2449 18.301 19.9377 19.0277C19.4355 20.2157 18.7267 21.2622 18.1016 22.0158C17.9345 22.2171 17.7463 22.3863 17.5435 22.5234V24.5998Z" fill="#DFB356"/>
</svg>
