<svg width="20" height="20" viewBox="0 0 20 20" fill="none" xmlns="http://www.w3.org/2000/svg">
<path fill-rule="evenodd" clip-rule="evenodd" d="M17.3313 3.91251C15.2781 3.74152 13.1262 3.56232 10.9258 3.52093V0C12.3671 0.0261111 13.5068 0.112847 14.819 0.228596C15.5148 0.289984 16.1187 0.772104 16.5687 1.23349C17.0482 1.72497 17.4969 2.34534 17.8751 2.93303C18.116 3.30742 18.3345 3.67851 18.5206 4.0105C18.1282 3.97887 17.7316 3.94585 17.3313 3.91251ZM18.777 5.8886C19.0739 5.91189 19.3445 6.08486 19.5018 6.34616C19.7362 7.92303 20 10.2006 20 11.8481C20 13.5878 19.7058 16.0299 19.4628 17.6078C19.3019 18.6533 18.4507 19.4765 17.383 19.5602C16.9514 19.5942 16.5136 19.6306 16.0702 19.6675L16.0664 19.6678C14.1292 19.8291 12.0868 19.9994 9.99997 19.9994C7.91313 19.9994 5.87119 19.8293 3.93399 19.6679C3.48922 19.6308 3.04997 19.5942 2.61696 19.5602C1.54926 19.4765 0.698086 18.6533 0.537091 17.6078C0.294127 16.0299 0 13.5878 0 11.8481C0 10.2004 0.26387 7.92256 0.498205 6.34567C0.655648 6.08465 0.925977 5.91188 1.22268 5.8886C1.76382 5.84617 2.30674 5.80102 2.85176 5.75569C5.18751 5.5614 7.5619 5.36389 9.99987 5.36389C12.4378 5.36389 14.8122 5.56139 17.148 5.75567C17.693 5.801 18.2359 5.84617 18.777 5.8886ZM2.6684 3.91251C4.72168 3.74152 6.87348 3.56232 9.0739 3.52093V0C7.6166 0.026403 6.46756 0.114781 5.1372 0.232442C4.43806 0.294274 3.83544 0.776629 3.38702 1.23989C2.91028 1.73241 2.46685 2.35364 2.09449 2.94163C1.85913 3.31327 1.64594 3.68161 1.46433 4.01168C1.86159 3.9797 2.26308 3.94626 2.6684 3.91251ZM9.33458 13.4728C9.50227 12.9697 9.29011 12.4315 8.85369 12.1693H11.0317C11.9375 12.1693 12.6718 12.9036 12.6718 13.8094C12.6718 14.7152 11.9375 15.4494 11.0317 15.4494H8.62439C8.01073 15.4494 7.51328 15.9469 7.51328 16.5605C7.51328 17.1742 8.01073 17.6716 8.62439 17.6716H11.0317C13.1648 17.6716 14.8939 15.9425 14.8939 13.8094C14.8939 11.6763 13.1648 9.94708 11.0317 9.94708H8.85314C9.28993 9.68502 9.50234 9.14655 9.33458 8.64326C9.14054 8.06111 8.51129 7.74649 7.92913 7.94053C6.57409 8.39222 5.62926 9.33145 5.1715 10.6814C5.1291 10.799 5.10597 10.9259 5.10597 11.0582C5.10597 11.1923 5.12972 11.3208 5.17323 11.4398C5.63163 12.7869 6.5758 13.7244 7.92913 14.1755C8.51129 14.3696 9.14054 14.055 9.33458 13.4728Z" fill="#DFB356"/>
</svg>
