<svg width="14" height="13" viewBox="0 0 14 13" fill="none" xmlns="http://www.w3.org/2000/svg">
<path d="M6.49364 0.201005C6.52351 0.140655 6.56965 0.089855 6.62686 0.0543378C6.68407 0.0188206 6.75007 0 6.81741 0C6.88474 0 6.95074 0.0188206 7.00795 0.0543378C7.06516 0.089855 7.11131 0.140655 7.14118 0.201005L8.71571 3.3903C8.81944 3.60021 8.97256 3.78182 9.16192 3.91954C9.35128 4.05726 9.57123 4.14697 9.80289 4.18097L13.3241 4.69628C13.3909 4.70594 13.4535 4.73409 13.5051 4.77752C13.5567 4.82096 13.595 4.87796 13.6159 4.94207C13.6367 5.00618 13.6392 5.07485 13.6231 5.14031C13.6069 5.20576 13.5728 5.26539 13.5245 5.31246L10.978 7.79218C10.8101 7.95584 10.6844 8.15786 10.6119 8.38085C10.5393 8.60384 10.522 8.84112 10.5615 9.07226L11.1627 12.5758C11.1745 12.6425 11.1673 12.7111 11.1419 12.7739C11.1166 12.8367 11.0741 12.8911 11.0193 12.9309C10.9645 12.9707 10.8996 12.9943 10.832 12.999C10.7645 13.0037 10.697 12.9893 10.6372 12.9575L7.48948 11.3025C7.28208 11.1936 7.05132 11.1367 6.81707 11.1367C6.58281 11.1367 6.35205 11.1936 6.14465 11.3025L2.99762 12.9575C2.93786 12.9891 2.87043 13.0033 2.80298 12.9986C2.73554 12.9938 2.6708 12.9701 2.61611 12.9304C2.56143 12.8906 2.51901 12.8363 2.49367 12.7736C2.46833 12.7109 2.46109 12.6424 2.47277 12.5758L3.07328 9.07294C3.11295 8.84169 3.09576 8.60426 3.02321 8.38113C2.95065 8.15801 2.8249 7.95588 2.65681 7.79218L0.110286 5.31314C0.0616139 5.26613 0.0271236 5.2064 0.0107438 5.14074C-0.00563605 5.07509 -0.0032468 5.00615 0.0176392 4.94179C0.0385253 4.87742 0.0770683 4.82022 0.128878 4.77669C0.180688 4.73317 0.243681 4.70507 0.310681 4.69559L3.83124 4.18097C4.06316 4.14723 4.28342 4.05764 4.47304 3.9199C4.66266 3.78217 4.81597 3.60042 4.91978 3.3903L6.49364 0.201005Z" fill="#A6372B"/>
</svg>
