<svg width="32" height="32" viewBox="0 0 32 32" fill="none" xmlns="http://www.w3.org/2000/svg">
<path fill-rule="evenodd" clip-rule="evenodd" d="M26.0944 0.0336343C26.4834 0.130095 26.7934 0.423186 26.9113 0.806087L27.9207 4.07913L31.1938 5.08853C31.5767 5.20661 31.8697 5.51657 31.9662 5.90549C32.0629 6.29438 31.9486 6.70539 31.6651 6.98873L27.7353 10.9187C26.2517 12.4025 24.0752 12.9526 22.0666 12.3555L17.7711 16.651C17.1016 17.3205 16.0162 17.3205 15.3468 16.651C14.6773 15.9815 14.6773 14.8961 15.3468 14.2266L19.6435 9.9299C19.0481 7.92245 19.5984 5.74773 21.0813 4.26475L25.0112 0.334773C25.2944 0.0514345 25.7056 -0.0628265 26.0944 0.0336343ZM3.42857 15.9087C3.42857 12.0457 4.51237 9.26894 6.32761 7.45611C8.1432 5.64295 10.9235 4.56142 14.7877 4.56142C15.4489 4.56142 16.0793 4.59328 16.6788 4.6552C17.6205 4.75248 18.4629 4.06789 18.5601 3.12613C18.6574 2.18437 17.9728 1.34206 17.0311 1.24478C16.307 1.16999 15.5588 1.13284 14.7877 1.13284C10.2925 1.13284 6.53616 2.40238 3.90487 5.03013C1.27323 7.65824 0 11.4123 0 15.9087C0 20.4051 1.27323 24.1591 3.90487 26.7872C6.53616 29.4151 10.2925 30.6846 14.7877 30.6846C15.7345 30.6846 16.502 29.917 16.502 28.9703C16.502 28.0235 15.7345 27.256 14.7877 27.256C10.9235 27.256 8.1432 26.1744 6.32761 24.3611C4.51237 22.5484 3.42857 19.7717 3.42857 15.9087ZM9.68096 15.9654C9.68096 14.102 10.1997 12.8883 10.9492 12.1388C11.6987 11.3893 12.9125 10.8705 14.7758 10.8705C15.7226 10.8705 16.4901 10.103 16.4901 9.15625C16.4901 8.20946 15.7226 7.44197 14.7758 7.44197C12.2813 7.44197 10.0905 8.14884 8.52487 9.71445C6.95927 11.28 6.25239 13.4709 6.25239 15.9654C6.25239 18.4599 6.95927 20.6508 8.52487 22.2164C10.0905 23.7819 12.2813 24.4889 14.7758 24.4889C16.9623 24.4889 18.9171 23.9477 20.4296 22.7485C21.9587 21.536 22.8568 19.792 23.1701 17.74C23.3131 16.8041 22.6702 15.9295 21.7343 15.7866C20.7983 15.6436 19.9237 16.2865 19.7808 17.2224C19.574 18.5767 19.0341 19.4794 18.2993 20.062C17.5479 20.6578 16.413 21.0603 14.7758 21.0603C12.9125 21.0603 11.6987 20.5415 10.9492 19.792C10.1997 19.0425 9.68096 17.8288 9.68096 15.9654ZM31.4375 21.2697C32.1387 20.6336 32.1915 19.5495 31.5554 18.8482C30.9193 18.147 29.8352 18.0942 29.1339 18.7303C27.4085 20.2955 26.0958 21.7173 24.9847 23.4514C24.2779 24.5545 23.6718 25.7545 23.091 27.1536L21.2307 25.2352C20.5716 24.5554 19.4863 24.5387 18.8066 25.1979C18.1269 25.8569 18.1102 26.9424 18.7693 27.6219L22.5096 31.4791C22.9237 31.9061 23.5294 32.088 24.1102 31.9595C24.691 31.8313 25.1637 31.411 25.3593 30.8494C26.2185 28.3808 26.973 26.7035 27.8715 25.301C28.7634 23.909 29.8432 22.716 31.4375 21.2697Z" fill="#DFB356"/>
</svg>
